<?xml version="1.0" encoding="UTF-8" standalone="no"?>
<!-- Created with Inkscape (http://www.inkscape.org/) -->

<svg
   xmlns:dc="http://purl.org/dc/elements/1.1/"
   xmlns:cc="http://creativecommons.org/ns#"
   xmlns:rdf="http://www.w3.org/1999/02/22-rdf-syntax-ns#"
   xmlns:svg="http://www.w3.org/2000/svg"
   xmlns="http://www.w3.org/2000/svg"
   xmlns:sodipodi="http://sodipodi.sourceforge.net/DTD/sodipodi-0.dtd"
   xmlns:inkscape="http://www.inkscape.org/namespaces/inkscape"
   id="svg3460"
   version="1.1"
   inkscape:version="0.91 r13725"
   width="2148.9858"
   height="820.12018"
   viewBox="0 0 2148.9859 820.12018"
   sodipodi:docname="hausverwaltung-logo-vektor.svg"
   inkscape:export-filename="/home/gregor/projects/hausverwaltung-ladenburg/hausverwaltung-logo.png"
   inkscape:export-xdpi="41.920685"
   inkscape:export-ydpi="41.920685">
  <metadata
     id="metadata3466">
    <rdf:RDF>
      <cc:Work
         rdf:about="">
        <dc:format>image/svg+xml</dc:format>
        <dc:type
           rdf:resource="http://purl.org/dc/dcmitype/StillImage" />
        <dc:title></dc:title>
      </cc:Work>
    </rdf:RDF>
  </metadata>
  <defs
     id="defs3464" />
  <sodipodi:namedview
     pagecolor="#ffffff"
     bordercolor="#666666"
     borderopacity="1"
     objecttolerance="10"
     gridtolerance="10"
     guidetolerance="10"
     inkscape:pageopacity="0"
     inkscape:pageshadow="2"
     inkscape:window-width="1920"
     inkscape:window-height="1021"
     id="namedview3462"
     showgrid="false"
     showguides="false"
     inkscape:guide-bbox="true"
     inkscape:zoom="0.34184134"
     inkscape:cx="1210.7129"
     inkscape:cy="450.2632"
     inkscape:window-x="0"
     inkscape:window-y="0"
     inkscape:window-maximized="1"
     inkscape:current-layer="flowRoot4569"
     fit-margin-top="0"
     fit-margin-left="0"
     fit-margin-right="0"
     fit-margin-bottom="0">
    <sodipodi:guide
       position="-29.353518,1421.3695"
       orientation="0,1"
       id="guide4552" />
    <sodipodi:guide
       position="411.39211,707.57203"
       orientation="1,0"
       id="guide4554" />
    <sodipodi:guide
       position="685.32134,947.67766"
       orientation="1,0"
       id="guide4558" />
    <sodipodi:guide
       position="664.2691,43.57603"
       orientation="0,1"
       id="guide4207" />
    <sodipodi:guide
       position="490.87236,268.05603"
       orientation="0,1"
       id="guide4209" />
    <sodipodi:guide
       position="718.05071,32.716282"
       orientation="1,0"
       id="guide4211" />
    <sodipodi:guide
       position="694.77982,13.065311"
       orientation="1,0"
       id="guide4213" />
    <inkscape:grid
       type="xygrid"
       id="grid4215"
       originx="2.3416044"
       originy="-4.000007" />
  </sodipodi:namedview>
  <path
     style="fill:none;fill-rule:evenodd;stroke:#01027c;stroke-width:20;stroke-linecap:round;stroke-linejoin:round;stroke-miterlimit:4;stroke-dasharray:none;stroke-opacity:1"
     d="m 411.84781,178.05829 0,589.5291 273.04504,0"
     id="path4556"
     inkscape:connector-curvature="0" />
  <g
     id="g4564"
     transform="translate(-335.49498,-602.72098)">
    <path
       sodipodi:nodetypes="cccccc"
       inkscape:connector-curvature="0"
       id="path3470"
       d="m 345.6374,1146.2169 265.67978,-0.7313 0,-357.97503 136.52254,-174.79022 136.45402,175.82448 3.10279,359.67207"
       style="fill:none;fill-rule:evenodd;stroke:#01027c;stroke-width:20;stroke-linecap:round;stroke-linejoin:round;stroke-miterlimit:21.39999962;stroke-dasharray:none;stroke-opacity:1" />
    <path
       inkscape:connector-curvature="0"
       id="path4560"
       d="m 1020.8163,787.5106 0,360.9573"
       style="fill:none;fill-rule:evenodd;stroke:#01027c;stroke-width:20;stroke-linecap:round;stroke-linejoin:bevel;stroke-miterlimit:4;stroke-dasharray:none;stroke-opacity:1" />
    <path
       sodipodi:nodetypes="cc"
       inkscape:connector-curvature="0"
       id="path4562"
       d="m 1014.6107,1016.1509 -125.14565,0"
       style="fill:none;fill-rule:evenodd;stroke:#01027c;stroke-width:20;stroke-linecap:round;stroke-linejoin:round;stroke-miterlimit:4;stroke-dasharray:none;stroke-opacity:1" />
  </g>
  <g
     transform="translate(-533.79913,-648.63963)"
     style="font-style:normal;font-weight:normal;font-size:40px;line-height:125%;font-family:sans-serif;letter-spacing:0px;word-spacing:0px;fill:#01027c;fill-opacity:1;stroke:none;stroke-width:1px;stroke-linecap:butt;stroke-linejoin:miter;stroke-opacity:1"
     id="flowRoot4569">
    <path
       d="m 1340.0177,1198.3572 q 0,1.4282 -0.9521,2.1424 -0.9522,0.7141 -2.6185,1.0711 -1.6662,0.3571 -4.8797,0.3571 -3.0945,0 -4.9988,-0.3571 -1.7853,-0.357 -2.6184,-1.0711 -0.8331,-0.7142 -0.8331,-2.1424 l 0,-10.7116 q -7.0221,7.4981 -15.7105,11.6638 -8.5693,4.1656 -18.2098,4.1656 -8.4503,0 -15.3534,-2.2613 -6.7841,-2.1424 -11.6638,-6.308 -4.7608,-4.1657 -7.4982,-10.2356 -2.6184,-6.07 -2.6184,-13.8062 0,-9.0454 3.6896,-15.7104 3.6895,-6.665 10.5926,-11.0687 6.9031,-4.4037 16.9006,-6.5461 9.9976,-2.2613 22.4946,-2.2613 l 14.7583,0 0,-8.3313 q 0,-6.189 -1.3092,-10.9497 -1.3093,-4.7608 -4.2847,-7.8552 -2.8565,-3.2135 -7.4982,-4.7608 -4.6417,-1.6662 -11.4258,-1.6662 -7.2601,0 -13.092,1.7852 -5.7129,1.6663 -10.1166,3.8086 -4.2847,2.0233 -7.2601,3.8086 -2.8565,1.6663 -4.2847,1.6663 -0.9521,0 -1.6662,-0.4761 -0.7142,-0.4761 -1.3092,-1.4282 -0.4761,-0.9522 -0.7142,-2.3804 -0.238,-1.5472 -0.238,-3.3325 0,-2.9755 0.3571,-4.6417 0.476,-1.7853 2.0233,-3.3325 1.6662,-1.5473 5.5938,-3.5706 3.9277,-2.1423 9.0455,-3.8086 5.1178,-1.7853 11.1877,-2.8564 6.0699,-1.1902 12.2589,-1.1902 11.5448,0 19.6381,2.6184 8.0932,2.6184 13.092,7.7362 4.9988,4.9988 7.2601,12.4969 2.2614,7.4982 2.2614,17.4958 l 0,72.2442 z m -19.519,-48.9166 -16.7817,0 q -8.0932,0 -14.0441,1.4282 -5.951,1.3092 -9.8786,4.0467 -3.9276,2.6184 -5.8319,6.427 -1.7853,3.6895 -1.7853,8.5693 0,8.3313 5.2368,13.3301 5.3559,4.8797 14.8774,4.8797 7.7362,0 14.2822,-3.9276 6.665,-3.9276 13.9252,-12.0209 l 0,-22.7325 z"
       style="font-style:normal;font-variant:normal;font-weight:normal;font-stretch:normal;font-size:243.75px;font-family:Calibri;-inkscape-font-specification:Calibri;fill:#01027c;fill-opacity:1"
       id="path3373" />
    <path
       d="m 1467.7246,1198.2382 q 0,0.9522 -0.4761,1.6663 -0.357,0.5951 -1.4282,1.0711 -1.0712,0.4761 -2.8564,0.7141 -1.6663,0.2381 -4.1657,0.2381 -2.7374,0 -4.5227,-0.2381 -1.6662,-0.238 -2.7374,-0.7141 -0.9522,-0.476 -1.3092,-1.0711 -0.3571,-0.7141 -0.3571,-1.6663 l 0,-14.1632 q -9.1644,10.1166 -18.0908,14.7583 -8.9264,4.6417 -18.0908,4.6417 -10.7117,0 -18.0908,-3.5705 -7.2602,-3.5706 -11.7829,-9.6405 -4.5227,-6.189 -6.546,-14.2823 -1.9043,-8.2122 -1.9043,-19.8761 l 0,-64.9841 q 0,-0.9521 0.3571,-1.5472 0.476,-0.7141 1.6662,-1.1902 1.1902,-0.5951 3.0945,-0.7141 1.9043,-0.2381 4.7608,-0.2381 2.8564,0 4.7607,0.2381 1.9043,0.119 2.9755,0.7141 1.1901,0.4761 1.6662,1.1902 0.4761,0.5951 0.4761,1.5472 l 0,62.3657 q 0,9.4025 1.3092,15.1154 1.4282,5.5939 4.1656,9.6405 2.8565,3.9276 7.1412,6.189 4.2846,2.1423 9.9975,2.1423 7.3792,0 14.6393,-5.2368 7.3791,-5.2368 15.5914,-15.3534 l 0,-74.8627 q 0,-0.9521 0.3571,-1.5472 0.4761,-0.7141 1.6662,-1.1902 1.1902,-0.5951 2.9755,-0.7141 1.9043,-0.2381 4.8798,-0.2381 2.8564,0 4.7607,0.2381 1.9043,0.119 2.9755,0.7141 1.0711,0.4761 1.5472,1.1902 0.5951,0.5951 0.5951,1.5472 l 0,107.1167 z"
       style="font-style:normal;font-variant:normal;font-weight:normal;font-stretch:normal;font-size:243.75px;font-family:Calibri;-inkscape-font-specification:Calibri;fill:#01027c;fill-opacity:1"
       id="path3375" />
    <path
       d="m 1571.2708,1169.0787 q 0,8.2122 -3.0945,14.6392 -2.9755,6.427 -8.5694,10.8307 -5.5938,4.4037 -13.33,6.6651 -7.7363,2.2613 -17.0197,2.2613 -5.7129,0 -10.9497,-0.9521 -5.1178,-0.8332 -9.2835,-2.1424 -4.0466,-1.4282 -6.903,-2.8564 -2.8565,-1.5472 -4.1657,-2.7374 -1.3092,-1.1902 -1.9043,-3.3325 -0.5951,-2.1424 -0.5951,-5.832 0,-2.2613 0.2381,-3.8086 0.238,-1.5472 0.5951,-2.4993 0.357,-0.9522 0.9521,-1.3092 0.7141,-0.4761 1.5473,-0.4761 1.3092,0 3.8085,1.6662 2.6185,1.5473 6.308,3.4516 3.8086,1.9043 8.9264,3.5705 5.1178,1.5473 11.7829,1.5473 4.9987,0 9.0454,-1.0712 4.0466,-1.0712 7.0221,-3.0945 2.9754,-2.1423 4.5227,-5.3558 1.6662,-3.2135 1.6662,-7.6172 0,-4.5227 -2.3803,-7.6172 -2.2614,-3.0945 -6.07,-5.4748 -3.8086,-2.3804 -8.5693,-4.1657 -4.7608,-1.9043 -9.8786,-3.9276 -4.9987,-2.0233 -9.8785,-4.5227 -4.7607,-2.6184 -8.5693,-6.308 -3.8086,-3.6896 -6.189,-8.8074 -2.2614,-5.1178 -2.2614,-12.2589 0,-6.308 2.3804,-12.0208 2.4994,-5.832 7.3792,-10.1166 4.8797,-4.4037 12.1399,-7.0221 7.3791,-2.6184 17.1386,-2.6184 4.2847,0 8.5694,0.7141 4.2846,0.7141 7.7362,1.7853 3.4515,1.0711 5.8319,2.3803 2.4994,1.1902 3.6896,2.1424 1.3092,0.9521 1.6662,1.6662 0.4761,0.7141 0.5951,1.6663 0.238,0.8331 0.3571,2.1423 0.238,1.3092 0.238,3.2135 0,2.0233 -0.238,3.5706 -0.1191,1.4282 -0.5951,2.3804 -0.3571,0.9521 -0.9522,1.4282 -0.5951,0.357 -1.3092,0.357 -1.0712,0 -3.0945,-1.3092 -2.0233,-1.3092 -5.2368,-2.7374 -3.2135,-1.5472 -7.6172,-2.8564 -4.2846,-1.3093 -9.8785,-1.3093 -4.9988,0 -8.8074,1.1902 -3.8086,1.0712 -6.308,3.2135 -2.3803,2.0234 -3.6895,4.8798 -1.1902,2.8564 -1.1902,6.189 0,4.6417 2.3803,7.8552 2.3804,3.0945 6.189,5.4748 3.8086,2.3804 8.6884,4.2847 4.8797,1.9043 9.8785,3.9276 5.1178,2.0233 9.9976,4.5227 4.9987,2.4994 8.8073,6.07 3.8086,3.5705 6.07,8.5693 2.3804,4.9988 2.3804,11.9019 z"
       style="font-style:normal;font-variant:normal;font-weight:normal;font-stretch:normal;font-size:243.75px;font-family:Calibri;-inkscape-font-specification:Calibri;fill:#01027c;fill-opacity:1"
       id="path3377" />
    <path
       d="m 1683.2672,1090.8835 q 0,0.476 -0.119,1.0711 0,0.4761 -0.119,1.0712 -0.119,0.5951 -0.3571,1.3092 -0.119,0.7141 -0.357,1.5473 l -36.5387,101.7608 q -0.4761,1.3092 -1.3092,2.1423 -0.7141,0.8332 -2.2614,1.3093 -1.5472,0.476 -3.9276,0.595 -2.3804,0.2381 -5.9509,0.2381 -3.5706,0 -5.951,-0.2381 -2.3803,-0.238 -3.9276,-0.7141 -1.4282,-0.476 -2.2613,-1.3092 -0.8332,-0.8331 -1.3092,-2.0233 l -36.4197,-101.7608 q -0.4761,-1.4283 -0.8331,-2.4994 -0.2381,-1.0712 -0.3571,-1.5473 0,-0.5951 0,-0.9521 0,-0.9522 0.4761,-1.6663 0.4761,-0.7141 1.5472,-1.0712 1.1902,-0.476 2.9755,-0.595 1.9043,-0.1191 4.6417,-0.1191 3.4516,0 5.4749,0.2381 2.1423,0.119 3.2135,0.5951 1.1902,0.476 1.6662,1.1901 0.5951,0.7142 1.0712,1.7853 l 30.2307,88.3118 0.4761,1.4282 0.357,-1.4282 29.8737,-88.3118 q 0.238,-1.0711 0.8331,-1.7853 0.5951,-0.7141 1.6663,-1.1901 1.1902,-0.4761 3.0945,-0.5951 2.0233,-0.2381 5.2368,-0.2381 2.7374,0 4.5227,0.1191 1.7853,0.119 2.7374,0.595 1.0712,0.4761 1.4282,1.1902 0.4761,0.5951 0.4761,1.5473 z"
       style="font-style:normal;font-variant:normal;font-weight:normal;font-stretch:normal;font-size:243.75px;font-family:Calibri;-inkscape-font-specification:Calibri;fill:#01027c;fill-opacity:1"
       id="path3379" />
    <path
       d="m 1794.4305,1140.0381 q 0,4.6418 -2.3803,6.6651 -2.2614,1.9043 -5.2368,1.9043 l -70.221,0 q 0,8.9264 1.7853,16.0675 1.7853,7.1411 5.9509,12.2589 4.1657,5.1178 10.8307,7.8552 6.665,2.7374 16.3055,2.7374 7.6172,0 13.5682,-1.1901 5.9509,-1.3093 10.2356,-2.8565 4.4036,-1.5472 7.1411,-2.7374 2.8564,-1.3092 4.2846,-1.3092 0.8332,0 1.4283,0.4761 0.7141,0.357 1.0711,1.1901 0.3571,0.8332 0.4761,2.3804 0.238,1.4282 0.238,3.5706 0,1.5472 -0.119,2.7374 -0.119,1.0712 -0.357,2.0233 -0.1191,0.8331 -0.5951,1.5472 -0.3571,0.7142 -1.0712,1.4283 -0.5951,0.5951 -3.8086,2.1423 -3.2135,1.4282 -8.3313,2.8564 -5.1178,1.4283 -11.9018,2.4994 -6.6651,1.1902 -14.2823,1.1902 -13.211,0 -23.2086,-3.6896 -9.8785,-3.6895 -16.6626,-10.9497 -6.784,-7.2601 -10.2356,-18.2098 -3.4515,-10.9497 -3.4515,-25.47 0,-13.8061 3.5705,-24.7558 3.5706,-11.0688 10.2356,-18.6859 6.7841,-7.7362 16.3056,-11.7829 9.5215,-4.1656 21.3043,-4.1656 12.616,0 21.4233,4.0466 8.9264,4.0466 14.6393,10.9497 5.7129,6.7841 8.3313,16.0675 2.7374,9.1644 2.7374,19.6381 l 0,3.5705 z m -19.757,-5.8319 q 0.357,-15.4724 -6.9031,-24.2798 -7.1411,-8.8073 -21.3043,-8.8073 -7.2602,0 -12.735,2.7374 -5.4749,2.7374 -9.1644,7.2601 -3.6896,4.5227 -5.7129,10.5927 -2.0234,5.9509 -2.2614,12.4969 l 58.0811,0 z"
       style="font-style:normal;font-variant:normal;font-weight:normal;font-stretch:normal;font-size:243.75px;font-family:Calibri;-inkscape-font-specification:Calibri;fill:#01027c;fill-opacity:1"
       id="path3381" />
    <path
       d="m 1887.027,1098.1436 q 0,2.6184 -0.119,4.4037 -0.1191,1.7853 -0.4761,2.8564 -0.3571,0.9522 -0.9522,1.5473 -0.476,0.4761 -1.4282,0.4761 -0.9521,0 -2.3804,-0.4761 -1.3092,-0.5951 -3.0944,-1.0712 -1.6663,-0.5951 -3.8086,-1.0712 -2.1424,-0.476 -4.6418,-0.476 -2.9754,0 -5.8319,1.1902 -2.8564,1.1901 -6.0699,3.9276 -3.0945,2.7374 -6.546,7.2601 -3.4516,4.5227 -7.6172,11.0687 l 0,70.459 q 0,0.9522 -0.4761,1.6663 -0.4761,0.5951 -1.5472,1.0711 -1.0712,0.4761 -2.9755,0.7141 -1.9043,0.2381 -4.8798,0.2381 -2.8564,0 -4.7607,-0.2381 -1.9043,-0.238 -3.0945,-0.7141 -1.0712,-0.476 -1.5472,-1.0711 -0.3571,-0.7141 -0.3571,-1.6663 l 0,-107.1167 q 0,-0.9521 0.3571,-1.5472 0.357,-0.7141 1.4282,-1.1902 1.0712,-0.5951 2.7374,-0.7141 1.6663,-0.2381 4.4037,-0.2381 2.6184,0 4.2847,0.2381 1.7853,0.119 2.7374,0.7141 0.9522,0.4761 1.3092,1.1902 0.4761,0.5951 0.4761,1.5472 l 0,15.5914 q 4.4037,-6.427 8.2123,-10.4736 3.9276,-4.0466 7.3791,-6.308 3.4516,-2.3803 6.7841,-3.2135 3.4515,-0.9521 6.903,-0.9521 1.5473,0 3.4516,0.238 2.0233,0.119 4.1656,0.5951 2.1424,0.4761 3.8086,1.0712 1.7853,0.5951 2.4994,1.1902 0.7141,0.595 0.9522,1.1901 0.238,0.4761 0.357,1.3092 0.2381,0.8332 0.2381,2.4994 0.119,1.5473 0.119,4.2847 z"
       style="font-style:normal;font-variant:normal;font-weight:normal;font-stretch:normal;font-size:243.75px;font-family:Calibri;-inkscape-font-specification:Calibri;fill:#01027c;fill-opacity:1"
       id="path3383" />
    <path
       d="m 2060.9131,1090.8835 q 0,0.8331 -0.2381,2.0233 -0.238,1.1902 -0.8331,2.9755 l -31.5399,101.7608 q -0.3571,1.3092 -1.1902,2.1423 -0.7141,0.8332 -2.1423,1.3093 -1.3092,0.476 -3.6896,0.595 -2.3804,0.2381 -5.9509,0.2381 -3.6896,0 -6.189,-0.2381 -2.4994,-0.238 -4.0466,-0.7141 -1.4282,-0.476 -2.1424,-1.3092 -0.7141,-0.8331 -1.0711,-2.0233 l -22.4945,-77.7191 -0.2381,-1.0712 -0.238,1.0712 -20.8282,77.7191 q -0.3571,1.3092 -1.1902,2.1423 -0.7141,0.8332 -2.2614,1.3093 -1.5472,0.476 -4.0466,0.595 -2.3804,0.2381 -5.9509,0.2381 -3.6896,0 -6.07,-0.2381 -2.2613,-0.238 -3.8086,-0.7141 -1.4282,-0.476 -2.1423,-1.3092 -0.7141,-0.8331 -1.0712,-2.0233 l -31.3019,-101.7608 q -0.5951,-1.7853 -0.8331,-2.9755 -0.238,-1.1902 -0.238,-2.0233 0,-1.0712 0.476,-1.6663 0.4761,-0.7141 1.5473,-1.0712 1.1902,-0.476 3.0945,-0.595 1.9043,-0.1191 4.6417,-0.1191 3.3325,0 5.3558,0.2381 2.0233,0.119 3.0945,0.5951 1.0712,0.357 1.5473,1.1901 0.476,0.7142 0.8331,1.7853 l 25.827,88.3118 0.238,1.0712 0.2381,-1.0712 23.6847,-88.3118 q 0.238,-1.0711 0.7141,-1.7853 0.5951,-0.8331 1.6662,-1.1901 1.0712,-0.4761 2.8565,-0.5951 1.9043,-0.2381 4.8798,-0.2381 2.8564,0 4.6417,0.2381 1.9043,0.119 2.9754,0.5951 1.0712,0.357 1.5473,1.0711 0.4761,0.7141 0.7141,1.6663 l 25.589,88.5498 0.238,1.0712 0.119,-1.0712 25.47,-88.3118 q 0.238,-1.0711 0.7141,-1.7853 0.5951,-0.8331 1.6663,-1.1901 1.1902,-0.4761 3.0945,-0.5951 2.0233,-0.2381 5.1178,-0.2381 2.8564,0 4.5227,0.1191 1.7852,0.119 2.7374,0.595 1.0712,0.4761 1.4282,1.0712 0.4761,0.5951 0.4761,1.6663 z"
       style="font-style:normal;font-variant:normal;font-weight:normal;font-stretch:normal;font-size:243.75px;font-family:Calibri;-inkscape-font-specification:Calibri;fill:#01027c;fill-opacity:1"
       id="path3385" />
    <path
       d="m 2163.15,1198.3572 q 0,1.4282 -0.9521,2.1424 -0.9522,0.7141 -2.6184,1.0711 -1.6663,0.3571 -4.8798,0.3571 -3.0945,0 -4.9988,-0.3571 -1.7853,-0.357 -2.6184,-1.0711 -0.8331,-0.7142 -0.8331,-2.1424 l 0,-10.7116 q -7.0221,7.4981 -15.7105,11.6638 -8.5693,4.1656 -18.2098,4.1656 -8.4503,0 -15.3534,-2.2613 -6.784,-2.1424 -11.6638,-6.308 -4.7608,-4.1657 -7.4982,-10.2356 -2.6184,-6.07 -2.6184,-13.8062 0,-9.0454 3.6896,-15.7104 3.6896,-6.665 10.5926,-11.0687 6.9031,-4.4037 16.9007,-6.5461 9.9975,-2.2613 22.4945,-2.2613 l 14.7583,0 0,-8.3313 q 0,-6.189 -1.3092,-10.9497 -1.3092,-4.7608 -4.2847,-7.8552 -2.8564,-3.2135 -7.4982,-4.7608 -4.6417,-1.6662 -11.4257,-1.6662 -7.2602,0 -13.0921,1.7852 -5.7129,1.6663 -10.1166,3.8086 -4.2846,2.0233 -7.2601,3.8086 -2.8564,1.6663 -4.2847,1.6663 -0.9521,0 -1.6662,-0.4761 -0.7141,-0.4761 -1.3092,-1.4282 -0.4761,-0.9522 -0.7141,-2.3804 -0.2381,-1.5472 -0.2381,-3.3325 0,-2.9755 0.3571,-4.6417 0.4761,-1.7853 2.0233,-3.3325 1.6663,-1.5473 5.5939,-3.5706 3.9276,-2.1423 9.0454,-3.8086 5.1178,-1.7853 11.1877,-2.8564 6.07,-1.1902 12.2589,-1.1902 11.5448,0 19.6381,2.6184 8.0933,2.6184 13.092,7.7362 4.9988,4.9988 7.2602,12.4969 2.2613,7.4982 2.2613,17.4958 l 0,72.2442 z m -19.519,-48.9166 -16.7816,0 q -8.0933,0 -14.0442,1.4282 -5.951,1.3092 -9.8786,4.0467 -3.9276,2.6184 -5.8319,6.427 -1.7853,3.6895 -1.7853,8.5693 0,8.3313 5.2369,13.3301 5.3558,4.8797 14.8773,4.8797 7.7362,0 14.2822,-3.9276 6.665,-3.9276 13.9252,-12.0209 l 0,-22.7325 z"
       style="font-style:normal;font-variant:normal;font-weight:normal;font-stretch:normal;font-size:243.75px;font-family:Calibri;-inkscape-font-specification:Calibri;fill:#01027c;fill-opacity:1"
       id="path3387" />
    <path
       d="m 2218.7317,1198.2382 q 0,0.9522 -0.4761,1.6663 -0.4761,0.5951 -1.5472,1.0711 -1.0712,0.4761 -2.9755,0.7141 -1.9043,0.2381 -4.8798,0.2381 -2.8564,0 -4.7607,-0.2381 -1.9043,-0.238 -3.0945,-0.7141 -1.0711,-0.476 -1.5472,-1.0711 -0.3571,-0.7141 -0.3571,-1.6663 l 0,-159.0088 q 0,-0.9521 0.3571,-1.6662 0.4761,-0.7142 1.5472,-1.1902 1.1902,-0.4761 3.0945,-0.7141 1.9043,-0.2381 4.7607,-0.2381 2.9755,0 4.8798,0.2381 1.9043,0.238 2.9755,0.7141 1.0711,0.476 1.5472,1.1902 0.4761,0.7141 0.4761,1.6662 l 0,159.0088 z"
       style="font-style:normal;font-variant:normal;font-weight:normal;font-stretch:normal;font-size:243.75px;font-family:Calibri;-inkscape-font-specification:Calibri;fill:#01027c;fill-opacity:1"
       id="path3389" />
    <path
       d="m 2310.9711,1190.383 q 0,3.4515 -0.4761,5.4748 -0.4761,2.0234 -1.4282,2.9755 -0.9522,0.9521 -2.8565,1.7853 -1.9043,0.8331 -4.4037,1.3092 -2.3803,0.5951 -5.1178,0.9521 -2.7374,0.3571 -5.4748,0.3571 -8.3313,0 -14.2822,-2.1423 -5.951,-2.2614 -9.7596,-6.6651 -3.8086,-4.5227 -5.5938,-11.3067 -1.6663,-6.9031 -1.6663,-16.1866 l 0,-62.6037 -14.9963,0 q -1.7853,0 -2.8565,-1.9043 -1.0711,-1.9043 -1.0711,-6.189 0,-2.2613 0.238,-3.8086 0.3571,-1.5472 0.8331,-2.4994 0.4761,-1.0711 1.1902,-1.4282 0.8331,-0.4761 1.7853,-0.4761 l 14.8773,0 0,-25.4699 q 0,-0.8332 0.3571,-1.5473 0.476,-0.7141 1.5472,-1.1902 1.1902,-0.5951 3.0945,-0.8331 1.9043,-0.238 4.7607,-0.238 2.9755,0 4.8798,0.238 1.9043,0.238 2.9755,0.8331 1.0711,0.4761 1.5472,1.1902 0.4761,0.7141 0.4761,1.5473 l 0,25.4699 27.4933,0 q 0.9521,0 1.6662,0.4761 0.7141,0.3571 1.1902,1.4282 0.5951,0.9522 0.8331,2.4994 0.2381,1.5473 0.2381,3.8086 0,4.2847 -1.0712,6.189 -1.0712,1.9043 -2.8564,1.9043 l -27.4933,0 0,59.7473 q 0,11.0687 3.2135,16.7816 3.3325,5.5939 11.7828,5.5939 2.7374,0 4.8798,-0.4761 2.1423,-0.5951 3.8086,-1.1902 1.6662,-0.5951 2.8564,-1.0712 1.1902,-0.595 2.1423,-0.595 0.5951,0 1.0712,0.357 0.5951,0.238 0.8331,1.0712 0.3571,0.8331 0.5951,2.2613 0.2381,1.4282 0.2381,3.5706 z"
       style="font-style:normal;font-variant:normal;font-weight:normal;font-stretch:normal;font-size:243.75px;font-family:Calibri;-inkscape-font-specification:Calibri;fill:#01027c;fill-opacity:1"
       id="path3391" />
    <path
       d="m 2428.9185,1198.2382 q 0,0.9522 -0.4761,1.6663 -0.3571,0.5951 -1.4282,1.0711 -1.0712,0.4761 -2.8565,0.7141 -1.6662,0.2381 -4.1656,0.2381 -2.7375,0 -4.5227,-0.2381 -1.6663,-0.238 -2.7375,-0.7141 -0.9521,-0.476 -1.3092,-1.0711 -0.357,-0.7141 -0.357,-1.6663 l 0,-14.1632 q -9.1645,10.1166 -18.0908,14.7583 -8.9264,4.6417 -18.0909,4.6417 -10.7116,0 -18.0908,-3.5705 -7.2601,-3.5706 -11.7828,-9.6405 -4.5227,-6.189 -6.546,-14.2823 -1.9043,-8.2122 -1.9043,-19.8761 l 0,-64.9841 q 0,-0.9521 0.357,-1.5472 0.4761,-0.7141 1.6663,-1.1902 1.1902,-0.5951 3.0945,-0.7141 1.9043,-0.2381 4.7607,-0.2381 2.8564,0 4.7607,0.2381 1.9043,0.119 2.9755,0.7141 1.1902,0.4761 1.6663,1.1902 0.476,0.5951 0.476,1.5472 l 0,62.3657 q 0,9.4025 1.3092,15.1154 1.4283,5.5939 4.1657,9.6405 2.8564,3.9276 7.1411,6.189 4.2847,2.1423 9.9976,2.1423 7.3791,0 14.6392,-5.2368 7.3792,-5.2368 15.5915,-15.3534 l 0,-74.8627 q 0,-0.9521 0.357,-1.5472 0.4761,-0.7141 1.6663,-1.1902 1.1902,-0.5951 2.9755,-0.7141 1.9043,-0.2381 4.8797,-0.2381 2.8565,0 4.7608,0.2381 1.9043,0.119 2.9754,0.7141 1.0712,0.4761 1.5473,1.1902 0.5951,0.5951 0.5951,1.5472 l 0,107.1167 z"
       style="font-style:normal;font-variant:normal;font-weight:normal;font-stretch:normal;font-size:243.75px;font-family:Calibri;-inkscape-font-specification:Calibri;fill:#01027c;fill-opacity:1"
       id="path3393" />
    <path
       d="m 2557.4585,1198.2382 q 0,0.9522 -0.4761,1.6663 -0.4761,0.5951 -1.5472,1.0711 -1.0712,0.4761 -2.9755,0.7141 -1.9043,0.2381 -4.7607,0.2381 -2.9755,0 -4.8798,-0.2381 -1.9043,-0.238 -2.9754,-0.7141 -1.0712,-0.476 -1.5473,-1.0711 -0.4761,-0.7141 -0.4761,-1.6663 l 0,-62.7228 q 0,-9.1644 -1.4282,-14.7583 -1.4282,-5.5938 -4.1656,-9.6405 -2.7375,-4.0466 -7.1412,-6.1889 -4.2846,-2.1424 -9.9975,-2.1424 -7.3792,0 -14.7583,5.2368 -7.3792,5.2369 -15.4724,15.3534 l 0,74.8627 q 0,0.9522 -0.4761,1.6663 -0.4761,0.5951 -1.5472,1.0711 -1.0712,0.4761 -2.9755,0.7141 -1.9043,0.2381 -4.8798,0.2381 -2.8564,0 -4.7607,-0.2381 -1.9043,-0.238 -3.0945,-0.7141 -1.0712,-0.476 -1.5472,-1.0711 -0.3571,-0.7141 -0.3571,-1.6663 l 0,-107.1167 q 0,-0.9521 0.3571,-1.5472 0.357,-0.7141 1.4282,-1.1902 1.0712,-0.5951 2.7374,-0.7141 1.6663,-0.2381 4.4037,-0.2381 2.6184,0 4.2847,0.2381 1.7853,0.119 2.7374,0.7141 0.9522,0.4761 1.3092,1.1902 0.4761,0.5951 0.4761,1.5472 l 0,14.1632 q 9.0454,-10.1166 17.9718,-14.7583 9.0454,-4.7607 18.2098,-4.7607 10.7117,0 17.9718,3.6895 7.3792,3.5706 11.9019,9.6406 4.5227,6.0699 6.427,14.2822 2.0233,8.0932 2.0233,19.519 l 0,65.3412 z"
       style="font-style:normal;font-variant:normal;font-weight:normal;font-stretch:normal;font-size:243.75px;font-family:Calibri;-inkscape-font-specification:Calibri;fill:#01027c;fill-opacity:1"
       id="path3395" />
    <path
       d="m 2682.785,1096.0013 q 0,4.1656 -1.1902,6.0699 -1.0711,1.7853 -2.8564,1.7853 l -15.3534,0 q 4.1657,4.2847 5.8319,9.5215 1.6663,5.1178 1.6663,10.7116 0,9.2835 -2.9755,16.4246 -2.9754,7.1411 -8.5693,12.1399 -5.4749,4.8798 -13.0921,7.4982 -7.6171,2.6184 -16.9006,2.6184 -6.546,0 -12.4969,-1.6663 -5.832,-1.7853 -9.0455,-4.4037 -2.1423,2.1424 -3.5705,4.8798 -1.3092,2.7374 -1.3092,6.308 0,4.1656 3.8086,6.9031 3.9276,2.7374 10.3546,2.9754 l 27.9694,1.1902 q 7.9742,0.238 14.6392,2.2614 6.6651,1.9043 11.5448,5.5938 4.8798,3.5706 7.6172,8.9264 2.7374,5.2368 2.7374,12.2589 0,7.3792 -3.0944,14.0442 -3.0945,6.6651 -9.5215,11.6638 -6.308,5.1178 -16.1865,7.9743 -9.8786,2.9754 -23.3277,2.9754 -12.973,0 -22.1374,-2.2613 -9.0454,-2.1423 -14.8773,-5.9509 -5.832,-3.8086 -8.4504,-9.1645 -2.6184,-5.2368 -2.6184,-11.4257 0,-3.9277 0.9522,-7.6172 0.9521,-3.6896 2.8564,-7.0221 2.0233,-3.3325 4.8798,-6.308 2.9754,-3.0945 6.784,-6.07 -5.8319,-2.9754 -8.6883,-7.4981 -2.7374,-4.5227 -2.7374,-9.7595 0,-7.2602 2.9754,-12.9731 2.9755,-5.7129 7.3792,-10.2356 -3.6896,-4.4037 -5.8319,-9.8785 -2.1424,-5.5939 -2.1424,-13.4491 0,-9.1644 3.0945,-16.4246 3.0945,-7.2601 8.5693,-12.2589 5.4749,-4.9988 13.0921,-7.6172 7.7362,-2.7374 16.7816,-2.7374 4.8798,0 9.0454,0.5951 4.2847,0.4761 7.9743,1.4282 l 32.373,0 q 2.0233,0 2.9755,2.0233 1.0711,1.9043 1.0711,5.951 z m -30.7068,28.2074 q 0,-10.9497 -6.0699,-17.0197 -5.9509,-6.189 -17.0197,-6.189 -5.7128,0 -9.9975,1.9043 -4.1657,1.9043 -7.0221,5.2369 -2.7374,3.3325 -4.1657,7.7362 -1.3092,4.2846 -1.3092,9.0454 0,10.5926 5.951,16.6626 6.0699,6.0699 16.9006,6.0699 5.8319,0 10.1166,-1.7853 4.2846,-1.9043 7.0221,-5.1178 2.8564,-3.3325 4.1656,-7.6171 1.4282,-4.2847 1.4282,-8.9264 z m 9.8786,84.8602 q 0,-6.9031 -5.7129,-10.5927 -5.5939,-3.8085 -15.2344,-4.0466 l -27.7313,-0.9521 q -3.8086,2.9754 -6.308,5.7129 -2.3804,2.6184 -3.8086,4.9987 -1.4282,2.4994 -2.0233,4.8798 -0.4761,2.3804 -0.4761,4.8798 0,7.7362 7.8553,11.6638 7.8552,4.0466 21.8994,4.0466 8.9264,0 14.8773,-1.7853 6.0699,-1.6662 9.7595,-4.5227 3.6896,-2.8564 5.2368,-6.546 1.6663,-3.6896 1.6663,-7.7362 z"
       style="font-style:normal;font-variant:normal;font-weight:normal;font-stretch:normal;font-size:243.75px;font-family:Calibri;-inkscape-font-specification:Calibri;fill:#01027c;fill-opacity:1"
       id="path3397" />
  </g>
  <g
     transform="translate(-534.19448,-424.53524)"
     style="font-style:normal;font-weight:normal;font-size:40px;line-height:125%;font-family:sans-serif;letter-spacing:0px;word-spacing:0px;fill:#01027c;fill-opacity:1;stroke:none;stroke-width:1px;stroke-linecap:butt;stroke-linejoin:miter;stroke-opacity:1"
     id="flowRoot4569-3">
    <path
       d="m 1340.0177,1198.3572 q 0,1.4282 -0.9521,2.1424 -0.9522,0.7141 -2.6185,1.0711 -1.6662,0.3571 -4.8797,0.3571 -3.0945,0 -4.9988,-0.3571 -1.7853,-0.357 -2.6184,-1.0711 -0.8331,-0.7142 -0.8331,-2.1424 l 0,-10.7116 q -7.0221,7.4981 -15.7105,11.6638 -8.5693,4.1656 -18.2098,4.1656 -8.4503,0 -15.3534,-2.2613 -6.7841,-2.1424 -11.6638,-6.308 -4.7608,-4.1657 -7.4982,-10.2356 -2.6184,-6.07 -2.6184,-13.8062 0,-9.0454 3.6896,-15.7104 3.6895,-6.665 10.5926,-11.0687 6.9031,-4.4037 16.9006,-6.5461 9.9976,-2.2613 22.4946,-2.2613 l 14.7583,0 0,-8.3313 q 0,-6.189 -1.3092,-10.9497 -1.3093,-4.7608 -4.2847,-7.8552 -2.8565,-3.2135 -7.4982,-4.7608 -4.6417,-1.6662 -11.4258,-1.6662 -7.2601,0 -13.092,1.7852 -5.7129,1.6663 -10.1166,3.8086 -4.2847,2.0233 -7.2601,3.8086 -2.8565,1.6663 -4.2847,1.6663 -0.9521,0 -1.6662,-0.4761 -0.7142,-0.4761 -1.3092,-1.4282 -0.4761,-0.9522 -0.7142,-2.3804 -0.238,-1.5472 -0.238,-3.3325 0,-2.9755 0.3571,-4.6417 0.476,-1.7853 2.0233,-3.3325 1.6662,-1.5473 5.5938,-3.5706 3.9277,-2.1423 9.0455,-3.8086 5.1178,-1.7853 11.1877,-2.8564 6.0699,-1.1902 12.2589,-1.1902 11.5448,0 19.6381,2.6184 8.0932,2.6184 13.092,7.7362 4.9988,4.9988 7.2601,12.4969 2.2614,7.4982 2.2614,17.4958 l 0,72.2442 z m -19.519,-48.9166 -16.7817,0 q -8.0932,0 -14.0441,1.4282 -5.951,1.3092 -9.8786,4.0467 -3.9276,2.6184 -5.8319,6.427 -1.7853,3.6895 -1.7853,8.5693 0,8.3313 5.2368,13.3301 5.3559,4.8797 14.8774,4.8797 7.7362,0 14.2822,-3.9276 6.665,-3.9276 13.9252,-12.0209 l 0,-22.7325 z"
       style="font-style:normal;font-variant:normal;font-weight:normal;font-stretch:normal;font-size:243.75px;font-family:Calibri;-inkscape-font-specification:Calibri;fill:#01027c;fill-opacity:1"
       id="path3400" />
    <path
       d="m 1467.7246,1198.2382 q 0,0.9522 -0.4761,1.6663 -0.357,0.7141 -1.4282,1.1902 -0.9521,0.357 -2.6184,0.595 -1.6663,0.2381 -4.0466,0.2381 -2.4994,0 -4.1657,-0.2381 -1.6662,-0.238 -2.7374,-0.595 -1.0712,-0.4761 -1.5472,-1.1902 -0.4761,-0.7141 -0.4761,-1.6663 l 0,-14.1632 q -8.4503,9.1644 -17.6148,14.2822 -9.0454,5.1178 -19.8761,5.1178 -11.7828,0 -20.1141,-4.5227 -8.3313,-4.6417 -13.5681,-12.3779 -5.1178,-7.8552 -7.4982,-18.3289 -2.3804,-10.5926 -2.3804,-22.2564 0,-13.8062 2.9755,-24.8749 2.9755,-11.1878 8.8074,-19.043 5.8319,-7.8552 14.4012,-12.0209 8.6884,-4.2846 19.9951,-4.2846 9.4025,0 17.1387,4.1656 7.8552,4.0467 15.4724,12.0209 l 0,-62.2467 q 0,-0.8331 0.3571,-1.5472 0.4761,-0.8332 1.6662,-1.1902 1.1902,-0.4761 2.9755,-0.7141 1.9043,-0.3571 4.7608,-0.3571 2.9754,0 4.8797,0.3571 1.9043,0.238 2.9755,0.7141 1.0711,0.357 1.5472,1.1902 0.5951,0.7141 0.5951,1.5472 l 0,158.5327 z m -19.7571,-75.3387 q -7.9742,-9.8786 -15.4724,-14.9964 -7.3791,-5.2368 -15.4724,-5.2368 -7.4982,0 -12.735,3.5706 -5.2368,3.5705 -8.5693,9.4024 -3.2135,5.8319 -4.7608,13.2111 -1.4282,7.3791 -1.4282,14.9963 0,8.0933 1.1902,15.8295 1.3092,7.7362 4.4037,13.8061 3.0945,5.951 8.2123,9.6406 5.1178,3.5705 12.854,3.5705 3.9276,0 7.4981,-1.0712 3.6896,-1.0711 7.4982,-3.5705 3.8086,-2.4994 7.9743,-6.427 4.1656,-4.0466 8.8073,-9.8786 l 0,-42.8466 z"
       style="font-style:normal;font-variant:normal;font-weight:normal;font-stretch:normal;font-size:243.75px;font-family:Calibri;-inkscape-font-specification:Calibri;fill:#01027c;fill-opacity:1"
       id="path3402" />
    <path
       d="m 1595.4315,1140.0381 q 0,4.6418 -2.3804,6.6651 -2.2613,1.9043 -5.2368,1.9043 l -70.2209,0 q 0,8.9264 1.7853,16.0675 1.7852,7.1411 5.9509,12.2589 4.1656,5.1178 10.8307,7.8552 6.665,2.7374 16.3055,2.7374 7.6172,0 13.5681,-1.1901 5.951,-1.3093 10.2356,-2.8565 4.4037,-1.5472 7.1411,-2.7374 2.8565,-1.3092 4.2847,-1.3092 0.8331,0 1.4282,0.4761 0.7141,0.357 1.0712,1.1901 0.3571,0.8332 0.4761,2.3804 0.238,1.4282 0.238,3.5706 0,1.5472 -0.119,2.7374 -0.119,1.0712 -0.3571,2.0233 -0.119,0.8331 -0.5951,1.5472 -0.357,0.7142 -1.0711,1.4283 -0.5951,0.5951 -3.8086,2.1423 -3.2135,1.4282 -8.3313,2.8564 -5.1178,1.4283 -11.9019,2.4994 -6.665,1.1902 -14.2822,1.1902 -13.2111,0 -23.2086,-3.6896 -9.8786,-3.6895 -16.6626,-10.9497 -6.7841,-7.2601 -10.2356,-18.2098 -3.4515,-10.9497 -3.4515,-25.47 0,-13.8061 3.5705,-24.7558 3.5706,-11.0688 10.2356,-18.6859 6.7841,-7.7362 16.3055,-11.7829 9.5215,-4.1656 21.3044,-4.1656 12.6159,0 21.4233,4.0466 8.9264,4.0466 14.6393,10.9497 5.7129,6.7841 8.3313,16.0675 2.7374,9.1644 2.7374,19.6381 l 0,3.5705 z m -19.7571,-5.8319 q 0.3571,-15.4724 -6.903,-24.2798 -7.1412,-8.8073 -21.3044,-8.8073 -7.2601,0 -12.7349,2.7374 -5.4749,2.7374 -9.1645,7.2601 -3.6895,4.5227 -5.7129,10.5927 -2.0233,5.9509 -2.2613,12.4969 l 58.081,0 z"
       style="font-style:normal;font-variant:normal;font-weight:normal;font-stretch:normal;font-size:243.75px;font-family:Calibri;-inkscape-font-specification:Calibri;fill:#01027c;fill-opacity:1"
       id="path3404" />
    <path
       d="m 1717.6636,1198.2382 q 0,0.9522 -0.4761,1.6663 -0.4761,0.5951 -1.5472,1.0711 -1.0712,0.4761 -2.9755,0.7141 -1.9043,0.2381 -4.7607,0.2381 -2.9755,0 -4.8798,-0.2381 -1.9043,-0.238 -2.9755,-0.7141 -1.0711,-0.476 -1.5472,-1.0711 -0.4761,-0.7141 -0.4761,-1.6663 l 0,-62.7228 q 0,-9.1644 -1.4282,-14.7583 -1.4282,-5.5938 -4.1657,-9.6405 -2.7374,-4.0466 -7.1411,-6.1889 -4.2846,-2.1424 -9.9975,-2.1424 -7.3792,0 -14.7583,5.2368 -7.3792,5.2369 -15.4724,15.3534 l 0,74.8627 q 0,0.9522 -0.4761,1.6663 -0.4761,0.5951 -1.5473,1.0711 -1.0711,0.4761 -2.9754,0.7141 -1.9043,0.2381 -4.8798,0.2381 -2.8564,0 -4.7607,-0.2381 -1.9043,-0.238 -3.0945,-0.7141 -1.0712,-0.476 -1.5472,-1.0711 -0.3571,-0.7141 -0.3571,-1.6663 l 0,-107.1167 q 0,-0.9521 0.3571,-1.5472 0.357,-0.7141 1.4282,-1.1902 1.0711,-0.5951 2.7374,-0.7141 1.6663,-0.2381 4.4037,-0.2381 2.6184,0 4.2847,0.2381 1.7852,0.119 2.7374,0.7141 0.9521,0.4761 1.3092,1.1902 0.4761,0.5951 0.4761,1.5472 l 0,14.1632 q 9.0454,-10.1166 17.9718,-14.7583 9.0454,-4.7607 18.2098,-4.7607 10.7117,0 17.9718,3.6895 7.3792,3.5706 11.9019,9.6406 4.5227,6.0699 6.427,14.2822 2.0233,8.0932 2.0233,19.519 l 0,65.3412 z"
       style="font-style:normal;font-variant:normal;font-weight:normal;font-stretch:normal;font-size:243.75px;font-family:Calibri;-inkscape-font-specification:Calibri;fill:#01027c;fill-opacity:1"
       id="path3406" />
    <path
       d="m 1852.0355,1143.2516 q 0,13.9252 -3.0945,25.113 -2.9754,11.0687 -8.9264,18.9239 -5.8319,7.8552 -14.4012,12.0209 -8.5693,4.1656 -19.6381,4.1656 -5.1178,0 -9.5214,-1.0711 -4.2847,-0.9522 -8.4504,-3.2135 -4.1656,-2.2614 -8.3313,-5.7129 -4.1656,-3.4516 -8.8073,-8.3313 l 0,13.092 q 0,0.9522 -0.4761,1.6663 -0.4761,0.7141 -1.5472,1.1902 -1.0712,0.357 -2.7375,0.595 -1.5472,0.2381 -4.0466,0.2381 -2.3804,0 -4.0466,-0.2381 -1.6663,-0.238 -2.7375,-0.595 -1.0711,-0.4761 -1.4282,-1.1902 -0.357,-0.7141 -0.357,-1.6663 l 0,-159.0088 q 0,-0.9521 0.357,-1.6662 0.4761,-0.7142 1.5473,-1.1902 1.1901,-0.4761 3.0944,-0.7141 1.9043,-0.2381 4.7608,-0.2381 2.9754,0 4.8797,0.2381 1.9043,0.238 2.9755,0.7141 1.0712,0.476 1.5472,1.1902 0.4761,0.7141 0.4761,1.6662 l 0,64.151 q 4.7608,-4.8797 9.1644,-8.2123 4.5228,-3.3325 8.8074,-5.3558 4.2847,-2.1423 8.5694,-3.0945 4.2846,-0.9521 9.0454,-0.9521 11.6638,0 19.8761,4.6417 8.3313,4.6417 13.4491,12.4969 5.2368,7.7363 7.6172,18.2099 2.3803,10.4736 2.3803,22.1374 z m -20.7092,2.2614 q 0,-8.2123 -1.3092,-15.9485 -1.1902,-7.7362 -4.2847,-13.6871 -3.0945,-5.951 -8.2123,-9.5215 -5.1178,-3.6896 -12.7349,-3.6896 -3.8086,0 -7.4982,1.0712 -3.6896,1.0711 -7.4982,3.5705 -3.8086,2.4994 -7.9742,6.427 -4.0467,3.9276 -8.6884,9.8786 l 0,42.7276 q 8.0933,9.8786 15.4724,15.1154 7.3792,5.1178 15.3534,5.1178 7.3792,0 12.616,-3.5706 5.2368,-3.5705 8.4503,-9.4024 3.3325,-5.951 4.7608,-13.2111 1.5472,-7.3791 1.5472,-14.8773 z"
       style="font-style:normal;font-variant:normal;font-weight:normal;font-stretch:normal;font-size:243.75px;font-family:Calibri;-inkscape-font-specification:Calibri;fill:#01027c;fill-opacity:1"
       id="path3408" />
    <path
       d="m 1973.3154,1198.2382 q 0,0.9522 -0.476,1.6663 -0.3571,0.5951 -1.4283,1.0711 -1.0711,0.4761 -2.8564,0.7141 -1.6663,0.2381 -4.1657,0.2381 -2.7374,0 -4.5227,-0.2381 -1.6662,-0.238 -2.7374,-0.7141 -0.9521,-0.476 -1.3092,-1.0711 -0.3571,-0.7141 -0.3571,-1.6663 l 0,-14.1632 q -9.1644,10.1166 -18.0908,14.7583 -8.9264,4.6417 -18.0908,4.6417 -10.7117,0 -18.0908,-3.5705 -7.2601,-3.5706 -11.7829,-9.6405 -4.5227,-6.189 -6.546,-14.2823 -1.9043,-8.2122 -1.9043,-19.8761 l 0,-64.9841 q 0,-0.9521 0.3571,-1.5472 0.4761,-0.7141 1.6662,-1.1902 1.1902,-0.5951 3.0945,-0.7141 1.9043,-0.2381 4.7608,-0.2381 2.8564,0 4.7607,0.2381 1.9043,0.119 2.9755,0.7141 1.1902,0.4761 1.6662,1.1902 0.4761,0.5951 0.4761,1.5472 l 0,62.3657 q 0,9.4025 1.3092,15.1154 1.4282,5.5939 4.1657,9.6405 2.8564,3.9276 7.1411,6.189 4.2846,2.1423 9.9975,2.1423 7.3792,0 14.6393,-5.2368 7.3792,-5.2368 15.5914,-15.3534 l 0,-74.8627 q 0,-0.9521 0.3571,-1.5472 0.4761,-0.7141 1.6663,-1.1902 1.1902,-0.5951 2.9754,-0.7141 1.9043,-0.2381 4.8798,-0.2381 2.8564,0 4.7607,0.2381 1.9043,0.119 2.9755,0.7141 1.0712,0.4761 1.5472,1.1902 0.5951,0.5951 0.5951,1.5472 l 0,107.1167 z"
       style="font-style:normal;font-variant:normal;font-weight:normal;font-stretch:normal;font-size:243.75px;font-family:Calibri;-inkscape-font-specification:Calibri;fill:#01027c;fill-opacity:1"
       id="path3410" />
    <path
       d="m 2072.2198,1098.1436 q 0,2.6184 -0.119,4.4037 -0.119,1.7853 -0.476,2.8564 -0.3571,0.9522 -0.9522,1.5473 -0.4761,0.4761 -1.4282,0.4761 -0.9522,0 -2.3804,-0.4761 -1.3092,-0.5951 -3.0945,-1.0712 -1.6662,-0.5951 -3.8086,-1.0712 -2.1423,-0.476 -4.6417,-0.476 -2.9754,0 -5.8319,1.1902 -2.8564,1.1901 -6.0699,3.9276 -3.0945,2.7374 -6.5461,7.2601 -3.4515,4.5227 -7.6171,11.0687 l 0,70.459 q 0,0.9522 -0.4761,1.6663 -0.4761,0.5951 -1.5473,1.0711 -1.0711,0.4761 -2.9754,0.7141 -1.9043,0.2381 -4.8798,0.2381 -2.8564,0 -4.7607,-0.2381 -1.9043,-0.238 -3.0945,-0.7141 -1.0712,-0.476 -1.5473,-1.0711 -0.357,-0.7141 -0.357,-1.6663 l 0,-107.1167 q 0,-0.9521 0.357,-1.5472 0.3571,-0.7141 1.4283,-1.1902 1.0711,-0.5951 2.7374,-0.7141 1.6663,-0.2381 4.4037,-0.2381 2.6184,0 4.2846,0.2381 1.7853,0.119 2.7375,0.7141 0.9521,0.4761 1.3092,1.1902 0.4761,0.5951 0.4761,1.5472 l 0,15.5914 q 4.4036,-6.427 8.2122,-10.4736 3.9276,-4.0466 7.3792,-6.308 3.4515,-2.3803 6.784,-3.2135 3.4516,-0.9521 6.9031,-0.9521 1.5473,0 3.4516,0.238 2.0233,0.119 4.1656,0.5951 2.1423,0.4761 3.8086,1.0712 1.7853,0.5951 2.4994,1.1902 0.7141,0.595 0.9521,1.1901 0.2381,0.4761 0.3571,1.3092 0.238,0.8332 0.238,2.4994 0.119,1.5473 0.119,4.2847 z"
       style="font-style:normal;font-variant:normal;font-weight:normal;font-stretch:normal;font-size:243.75px;font-family:Calibri;-inkscape-font-specification:Calibri;fill:#01027c;fill-opacity:1"
       id="path3412" />
    <path
       d="m 2181.0028,1096.0013 q 0,4.1656 -1.1902,6.0699 -1.0711,1.7853 -2.8564,1.7853 l -15.3534,0 q 4.1656,4.2847 5.8319,9.5215 1.6663,5.1178 1.6663,10.7116 0,9.2835 -2.9755,16.4246 -2.9755,7.1411 -8.5693,12.1399 -5.4749,4.8798 -13.0921,7.4982 -7.6172,2.6184 -16.9006,2.6184 -6.546,0 -12.497,-1.6663 -5.8319,-1.7853 -9.0454,-4.4037 -2.1423,2.1424 -3.5705,4.8798 -1.3092,2.7374 -1.3092,6.308 0,4.1656 3.8086,6.9031 3.9276,2.7374 10.3546,2.9754 l 27.9693,1.1902 q 7.9743,0.238 14.6393,2.2614 6.665,1.9043 11.5448,5.5938 4.8798,3.5706 7.6172,8.9264 2.7374,5.2368 2.7374,12.2589 0,7.3792 -3.0945,14.0442 -3.0944,6.6651 -9.5214,11.6638 -6.308,5.1178 -16.1866,7.9743 -9.8785,2.9754 -23.3276,2.9754 -12.973,0 -22.1375,-2.2613 -9.0454,-2.1423 -14.8773,-5.9509 -5.8319,-3.8086 -8.4503,-9.1645 -2.6184,-5.2368 -2.6184,-11.4257 0,-3.9277 0.9521,-7.6172 0.9522,-3.6896 2.8565,-7.0221 2.0233,-3.3325 4.8798,-6.308 2.9754,-3.0945 6.784,-6.07 -5.8319,-2.9754 -8.6883,-7.4981 -2.7375,-4.5227 -2.7375,-9.7595 0,-7.2602 2.9755,-12.9731 2.9755,-5.7129 7.3791,-10.2356 -3.6895,-4.4037 -5.8319,-9.8785 -2.1423,-5.5939 -2.1423,-13.4491 0,-9.1644 3.0945,-16.4246 3.0945,-7.2601 8.5693,-12.2589 5.4749,-4.9988 13.0921,-7.6172 7.7362,-2.7374 16.7816,-2.7374 4.8797,0 9.0454,0.5951 4.2847,0.4761 7.9742,1.4282 l 32.3731,0 q 2.0233,0 2.9754,2.0233 1.0712,1.9043 1.0712,5.951 z m -30.7068,28.2074 q 0,-10.9497 -6.0699,-17.0197 -5.951,-6.189 -17.0197,-6.189 -5.7129,0 -9.9975,1.9043 -4.1657,1.9043 -7.0221,5.2369 -2.7375,3.3325 -4.1657,7.7362 -1.3092,4.2846 -1.3092,9.0454 0,10.5926 5.9509,16.6626 6.07,6.0699 16.9007,6.0699 5.8319,0 10.1166,-1.7853 4.2846,-1.9043 7.022,-5.1178 2.8565,-3.3325 4.1657,-7.6171 1.4282,-4.2847 1.4282,-8.9264 z m 9.8786,84.8602 q 0,-6.9031 -5.7129,-10.5927 -5.5939,-3.8085 -15.2344,-4.0466 l -27.7313,-0.9521 q -3.8086,2.9754 -6.308,5.7129 -2.3804,2.6184 -3.8086,4.9987 -1.4282,2.4994 -2.0233,4.8798 -0.4761,2.3804 -0.4761,4.8798 0,7.7362 7.8552,11.6638 7.8553,4.0466 21.8994,4.0466 8.9264,0 14.8774,-1.7853 6.0699,-1.6662 9.7595,-4.5227 3.6896,-2.8564 5.2368,-6.546 1.6663,-3.6896 1.6663,-7.7362 z"
       style="font-style:normal;font-variant:normal;font-weight:normal;font-stretch:normal;font-size:243.75px;font-family:Calibri;-inkscape-font-specification:Calibri;fill:#01027c;fill-opacity:1"
       id="path3414" />
  </g>
</svg>
